 <svg xmlns="http://www.w3.org/2000/svg" width="24" height="24" fill="currentColor" className="bi bi-gear" viewBox="0 0 16 16">
    <path d="M9.405 1.05a1 1 0 0 1 1.19.1l1.5 1.5a1 1 0 0 1 .1 1.19l-.5.5a1 1 0 0 1-1.414 0l-.5-.5a1 1 0 0 1-.1-1.19l1.5-1.5zm-2.81 0a1 1 0 0 0-1.19.1l-1.5 1.5a1 1 0 0 0-.1 1.19l.5.5a1 1 0 0 0 1.414 0l.5-.5a1 1 0 0 0 .1-1.19l-1.5-1.5zm5.62 5.62a1 1 0 0 1 0 1.414l-.5.5a1 1 0 0 1-1.414 0l-.5-.5a1 1 0 0 1 0-1.414l.5-.5a1 1 0 0 1 1.414 0l.5.5zm-5.62 0a1 1 0 0 0 0 1.414l.5.5a1 1 0 0 0 1.414 0l.5-.5a1 1 0 0 0 0-1.414l-.5-.5a1 1 0 0 0-1.414 0l-.5.5zM8 0a8 8 0 1 0 0 16A8 8 0 0 0 8 0z"/>
  </svg>